<?xml version="1.0" encoding="iso-8859-1"?>
<!-- Generator: Adobe Illustrator 19.0.0, SVG Export Plug-In . SVG Version: 6.00 Build 0)  -->
<svg version="1.1" id="Capa_1" xmlns="http://www.w3.org/2000/svg" xmlns:xlink="http://www.w3.org/1999/xlink" x="0px" y="0px"
	 viewBox="0 0 512 512" style="enable-background:new 0 0 512 512;" xml:space="preserve">
<path style="fill:#67C5B8;" d="M251.733,452.267l6.4-43.733c1.067-8.533,7.467-14.933,16-16
	c37.333-5.333,140.8-18.133,199.467,2.133c7.467,2.133,12.8,9.6,12.8,17.067v72.533L251.733,452.267z"/>
<path style="fill:#FFD15C;" d="M196.267,32L196.267,32c0-1.067,2.133-4.267,6.4-4.267s4.267,2.133,4.267,2.133s1.067-3.2,6.4-2.133
	c5.333,1.067,3.2,3.2,3.2,3.2s2.133-2.133,6.4,0s3.2,4.267,3.2,4.267s2.133-4.267,6.4-1.067c5.333,3.2,3.2,14.933,2.133,16
	c0,2.133-2.133,3.2-2.133,3.2s1.067,5.333-1.067,7.467c-2.133,1.067-17.067,10.667-18.133,13.867
	c-2.133,2.133-4.267,21.333-4.267,28.8s0,60.8,0,67.2c1.067,6.4,1.067,25.6,6.4,29.867s45.867,28.8,52.267,33.067
	c5.333,4.267,12.8,6.4,20.267,8.533c7.467,2.133,13.867,4.267,18.133,8.533c3.2,3.2,11.733,14.933,25.6,14.933
	c0,0,5.333-1.067,7.467-3.2l-1.067-11.733c0,0-19.2,3.2-20.267-6.4c-1.067-9.6-1.067-10.667-2.133-13.867
	c-1.067-4.267-9.6-17.067-12.8-21.333c-3.2-4.267-6.4-8.533-5.333-13.867c1.067-6.4,2.133-11.733,2.133-11.733
	s-3.2-9.6-2.133-14.933c1.067-5.333,4.267-20.267,5.333-23.467c1.067-3.2,6.4-8.533,6.4-8.533l35.2-4.267l50.133,34.133
	c0,0-9.6,51.2-7.467,59.733c2.133,8.533,5.333,22.4,13.867,27.733C409.6,259.2,416,262.4,416,262.4s13.867-16,21.333-18.133
	c0,0,23.467-40.533,27.733-48c0,0-5.333-25.6-8.533-35.2c-4.267-10.667-5.333-26.667-8.533-38.4c-3.2-10.667-13.867-41.6-16-45.867
	c-2.133-5.333-8.533-16-12.8-20.267c0,0-10.667-8.533-13.867-18.133c-3.2-8.533-3.2-16-3.2-16s-1.067-5.333,1.067-9.6l1.067-9.6
	c0,0,8.533,1.067,7.467,7.467c0,0,3.2-6.4,5.333-3.2c0,0,1.067-2.133,4.267-2.133c2.133,0,11.733,3.2,17.067,4.267
	c2.133,0,4.267,2.133,4.267,4.267c1.067,8.533,2.133,26.667,1.067,28.8c0,0,2.133,8.533,4.267,9.6c2.133,1.067,12.8,28.8,13.867,32
	c1.067,3.2,23.467,43.733,26.667,49.067c2.133,4.267,14.933,40.533,16,44.8s2.133,16-2.133,26.667
	c-4.267,10.667-23.467,62.933-32,80c-9.6,17.067-19.2,28.8-19.2,28.8s-3.2,22.4-7.467,34.133C439.467,359.467,416,416,412.8,439.467
	c-3.2,23.467-4.267,30.933-4.267,30.933L262.4,449.067c0,0,8.533-16,18.133-28.8c9.6-11.733,4.267-35.2,3.2-38.4
	c0,0-11.733-27.733-1.067-51.2l8.533-18.133c0,0-18.133-14.933-28.8-21.333c-10.667-6.4-42.667-33.067-56.533-49.067
	c-13.867-14.933-22.4-25.6-22.4-25.6s-4.267-4.267-7.467-6.4c-3.2-2.133-4.267-6.4-4.267-11.733c0-5.333-4.267-29.867,2.133-64
	c6.4-34.133,10.667-53.333,10.667-59.733c0-5.333,2.133-25.6,5.333-33.067C192,37.333,196.267,32,196.267,32z"/>
<g>
	<path style="fill:#F5B54C;" d="M362.667,258.133c-7.467,4.267-14.933,3.2-6.4-2.133c14.933-9.6,22.4-30.933,22.4-30.933
		c-8.533,16-40.533,27.733-40.533,27.733l1.067,11.733c-2.133,2.133-7.467,3.2-7.467,3.2c-1.067,0-2.133,0-3.2,0V281.6
		C371.2,277.333,368,254.933,362.667,258.133z"/>
	<path style="fill:#F5B54C;" d="M220.8,54.4c1.067,1.067,1.067,2.133,2.133,2.133C221.867,55.467,220.8,54.4,220.8,54.4
		c-1.067-1.067-2.133-2.133-2.133-2.133c-1.067-1.067-3.2-1.067-5.333-1.067c-2.133,0-3.2,1.067-5.333,1.067
		c-2.133,0-3.2,0-5.333-1.067c-1.067-1.067-1.067-3.2-2.133-4.267c-1.067-1.067-1.067-2.133-2.133-2.133
		c-1.067-1.067-1.067-2.133-1.067-4.267c0-1.067-1.067-2.133-1.067-2.133c1.067,0,1.067,1.067,2.133,1.067
		c1.067-2.133,0-4.267-1.067-6.4h1.067c1.067,2.133,1.067,4.267,1.067,6.4s0,4.267,2.133,6.4c1.067,1.067,2.133,1.067,2.133,0
		c-1.067-2.133-1.067-2.133-1.067-3.2c1.067-4.267,3.2-8.533,4.267-12.8c-1.067,3.2-2.133,6.4-2.133,9.6
		c-1.067,2.133-1.067,4.267-1.067,6.4c0,1.067,1.067,2.133,2.133,3.2c1.067,1.067,3.2,0,3.2-1.067
		c1.067-1.067,1.067-2.133,1.067-2.133c0-5.333,3.2-10.667,6.4-14.933c-2.133,4.267-5.333,8.533-6.4,12.8c0,1.067-1.067,3.2,0,4.267
		c1.067,1.067,1.067,1.067,2.133,2.133c3.2,1.067,6.4,0,8.533-1.067c0,1.067-2.133,2.133-3.2,2.133c0,2.133,2.133,3.2,4.267,3.2
		C222.933,54.4,221.867,54.4,220.8,54.4z"/>
	<path style="fill:#F5B54C;" d="M195.2,37.333c0,0-1.067,0-1.067-1.067C195.2,37.333,195.2,37.333,195.2,37.333z"/>
	<path style="fill:#F5B54C;" d="M218.667,40.533l3.2-1.067c0,0,3.2-4.267,4.267-4.267L224,39.467c0,0,3.2,1.067,5.333,4.267
		c2.133,3.2,1.067,3.2,1.067,3.2l3.2-4.267c0,0-1.067,2.133-1.067,3.2c0,1.067,0,1.067,1.067,2.133c1.067,0,0,1.067-1.067,2.133
		c0,1.067,0,2.133,1.067,2.133c1.067,0,1.067,0,1.067,0s-1.067,1.067-2.133,1.067L230.4,48c0,0-2.133-6.4-6.4-7.467c0,0,0,0-1.067,0
		L218.667,40.533z"/>
</g>
<path style="fill:#FFD15C;" d="M209.067,41.6c0,0-2.133,10.667,8.533,8.533c0,0,3.2,0,5.333-2.133L224,41.6l-7.467-1.067
	L209.067,41.6z"/>
<path style="fill:#F3F3F3;" d="M209.067,41.6c0,0,9.6,5.333,9.6-1.067L209.067,41.6z"/>
<path style="fill:#F5B54C;" d="M218.667,40.533c-1.067,0-1.067,0-2.133,0c-1.067,0-1.067,0-2.133,0c-1.067,0-3.2,0-4.267,0l0,0
	c0,1.067,0,1.067,0,2.133c0,1.067,0,1.067,0,2.133s0,1.067,0,2.133s0,1.067,1.067,1.067c1.067,1.067,2.133,1.067,3.2,2.133
	c1.067,0,1.067,0,2.133,0h1.067h1.067H217.6h-1.067c-1.067,0-1.067,0-2.133,0c-1.067,0-1.067,0-2.133-1.067
	C211.2,49.067,211.2,48,211.2,48c-1.067-1.067-1.067-2.133-1.067-3.2c0-1.067,0-1.067,0-2.133c0-1.067,0-1.067,0-2.133l0,0l0,0
	c1.067,0,3.2,0,4.267,0c1.067,0,1.067,0,2.133,0C217.6,40.533,217.6,40.533,218.667,40.533z"/>
<g>
	<path style="fill:#425A6B;" d="M291.2,314.667l-8.533,18.133C272,356.267,283.733,384,283.733,384c0,3.2,5.333,26.667-3.2,38.4
		c-9.6,11.733-18.133,28.8-18.133,28.8l146.133,21.333c0,0,1.067-8.533,4.267-30.933c3.2-23.467,26.667-80,30.933-91.733
		c2.133-7.467,4.267-19.2,6.4-26.667c-2.133,10.667-17.067,24.533-25.6,20.267c-8.533-4.267-19.2-30.933-19.2-50.133
		c0-19.2,11.733-30.933,11.733-30.933s-5.333-2.133-11.733-6.4l0,0c0,0-10.667,8.533-20.267,17.067
		c-9.6,8.533-20.267,16-21.333,17.067c-13.867,9.6-37.333,6.4-33.067-1.067c0,0,10.667-21.333,8.533-26.667
		c-2.133,2.133-7.467,3.2-7.467,3.2c-3.2,0-5.333-1.067-8.533-1.067C309.333,279.467,298.667,295.467,291.2,314.667z"/>
	<path style="fill:#425A6B;" d="M301.867,137.6c0,0,1.067,44.8,80,55.467c0,0-27.733-7.467-35.2-29.867
		c0,0,10.667,14.933,26.667,19.2c0,0-22.4-14.933-26.667-25.6c-5.333-10.667-5.333-17.067-5.333-17.067s8.533,3.2,14.933,13.867
		c6.4,10.667,10.667,21.333,19.2,22.4c8.533,1.067,17.067-1.067,17.067-1.067s-11.733,26.667-6.4,42.667c0,0,13.867-12.8,16-30.933
		c2.133-19.2,4.267-49.067-21.333-66.133C355.2,105.6,316.8,116.267,301.867,137.6z"/>
</g>
<ellipse transform="matrix(0.4185 -0.9082 0.9082 0.4185 51.269 457.5962)" style="fill:#FFD15C;" cx="382.986" cy="188.76" rx="18.133" ry="9.6"/>
<g>
	<path style="fill:#425A6B;" d="M354.133,176H329.6c11.733,7.467,28.8,13.867,52.267,17.067
		C381.867,193.067,364.8,187.733,354.133,176z"/>
	<path style="fill:#425A6B;" d="M305.067,134.4c-1.067,1.067-1.067,1.067-2.133,2.133c-1.067,1.067-1.067,1.067-2.133,2.133
		c0,1.067-1.067,2.133-1.067,2.133c-1.067,2.133-1.067,3.2-2.133,5.333c0,2.133-1.067,3.2-1.067,5.333s-1.067,3.2-1.067,5.333
		s0,3.2,0,5.333v1.067v1.067c0,1.067,0,1.067,0,2.133c0,3.2,1.067,5.333,2.133,6.4c0,1.067,1.067,1.067,1.067,2.133V176
		c0,0,0,0,0-1.067c0,0,0-1.067-1.067-2.133c-1.067-1.067-1.067-4.267-1.067-6.4c0-1.067,0-1.067,0-2.133V163.2v-1.067
		c0-1.067,0-3.2,1.067-5.333c0-2.133,1.067-3.2,1.067-5.333s1.067-3.2,1.067-5.333c1.067-2.133,1.067-3.2,2.133-5.333
		c0-1.067,1.067-1.067,1.067-2.133S304,137.6,304,136.533c1.067-1.067,1.067-1.067,2.133-2.133
		C306.133,135.467,306.133,135.467,305.067,134.4z"/>
	<path style="fill:#425A6B;" d="M306.133,135.467c0,1.067-1.067,1.067-1.067,2.133C304,138.667,304,139.733,304,139.733
		c0,1.067-1.067,2.133-1.067,3.2V144v1.067v1.067c0,1.067,0,2.133-1.067,3.2c0,1.067,0,2.133,0,3.2s0,2.133,0,2.133
		c0,1.067,0,1.067,0,2.133s0,1.067,0,1.067v1.067l0,0l0,0v-1.067V156.8c0-1.067,0-1.067,0-2.133s0-1.067,0-2.133
		s0-2.133,1.067-2.133c0-1.067,1.067-2.133,1.067-3.2c0,0,0-1.067,1.067-1.067v-1.067V144c0-1.067,1.067-2.133,1.067-2.133
		c1.067-1.067,1.067-1.067,2.133-2.133l1.067-1.067C307.2,136.533,306.133,135.467,306.133,135.467z"/>
</g>
<polygon style="fill:#F26F5A;" points="512,471.467 0,422.4 0,507.733 512,507.733 "/>
<rect y="480" style="fill:#F05640;" width="512" height="28.8"/>
<polygon style="fill:#425A6B;" points="213.333,209.067 228.267,205.867 260.267,412.8 246.4,416 199.467,340.267 209.067,213.333 
	"/>
<polygon style="fill:#344A5E;" points="61.867,213.333 76.8,209.067 228.267,205.867 212.267,212.267 "/>
<polygon style="fill:#ACB2BA;" points="61.867,213.333 212.267,212.267 246.4,416 92.8,397.867 "/>
<polygon style="fill:#F3F3F3;" points="61.867,213.333 212.267,212.267 246.4,416 92.8,397.867 "/>
<polygon style="fill:#CED6E0;" points="118.4,294.4 114.133,353.067 94.933,398.933 92.8,397.867 61.867,213.333 87.467,267.733 "/>
<polygon style="fill:#E8EAE8;" points="87.467,267.733 157.867,267.733 174.933,365.867 102.4,356.267 "/>
<polygon style="fill:#425A6B;" points="202.667,461.867 202.667,469.333 110.933,473.6 41.6,455.467 41.6,448 "/>
<polygon style="fill:#344A5E;" points="202.667,461.867 202.667,469.333 110.933,473.6 110.933,454.4 "/>
<polygon style="fill:#2A3F4C;" points="41.6,448 110.933,466.133 202.667,461.867 128,444.8 "/>
<path style="fill:#344A5E;" d="M140.8,308.267l-1.067,12.8l-9.6,4.267L108.8,460.8h-6.4l12.8-135.467
	C115.2,325.333,124.8,308.267,140.8,308.267z"/>
<path style="fill:#425A6B;" d="M102.4,460.8l21.333-141.867c0,0,0-8.533,17.067-10.667l-21.333-1.067c0,0-12.8-1.067-14.933,5.333
	c-1.067,6.4-21.333,140.8-21.333,140.8L102.4,460.8z"/>
<polygon style="fill:#CED6E0;" points="246.4,416 174.933,365.867 157.867,267.733 212.267,212.267 "/>
<g>
	<path style="fill:#F5B54C;" d="M425.6,32c-1.067,0-1.067,0-2.133,0c-2.133,0-4.267-1.067-5.333-1.067c-2.133,0-3.2-2.133-4.267-3.2
		c-1.067-2.133-1.067-4.267-1.067-6.4c0-3.2,0-6.4,0-9.6c-1.067,7.467-4.267,8.533-6.4,8.533c1.067,0,2.133-1.067,3.2-1.067
		s2.133,0,2.133,1.067c0,1.067,1.067,2.133,1.067,4.267c0,1.067,1.067,3.2,2.133,4.267c1.067,1.067,2.133,2.133,4.267,2.133
		c2.133,1.067,4.267,1.067,6.4,2.133c0,0,0,0,1.067,0C425.6,33.067,425.6,32,425.6,32z"/>
	<path style="fill:#F5B54C;" d="M421.333,18.133c0,0,2.133,0,3.2,0s3.2,2.133,4.267,3.2c0,0,3.2-4.267,4.267-4.267
		c0,0-3.2,1.067-4.267,3.2c0,0-3.2,0-3.2-2.133c0,0,2.133-3.2,3.2-4.267c0,0-3.2,4.267-4.267,3.2c-1.067-3.2-2.133-6.4-2.133-6.4
		s2.133,4.267,2.133,5.333C424.533,16,423.467,17.067,421.333,18.133z"/>
	<path style="fill:#F5B54C;" d="M425.6,32c-1.067-1.067-1.067-2.133-1.067-3.2v-1.067v-1.067l0,0l0,0c0,0,0,0,0,1.067l0,0
		c1.067,1.067,0,0,0,1.067h-1.067c-1.067,0-2.133,0-3.2,0H419.2l0,0h-1.067c-1.067,0-2.133-1.067-2.133-1.067
		c-1.067-2.133-2.133-3.2-2.133-4.267c0-1.067,0-1.067,0-3.2V19.2c0-1.067,1.067-2.133,1.067-3.2c1.067-2.133,2.133-4.267,3.2-5.333
		c2.133,2.133,2.133,4.267,3.2,5.333c0,1.067,1.067,2.133,1.067,3.2v1.067l0,0c0,0,1.067,1.067,0,0c0,0,0,0-1.067-1.067l0,0l0,0l0,0
		l0,0l0,0l0,0h1.067c1.067,0,2.133,1.067,3.2,1.067c0,0,1.067,0,1.067,1.067c1.067,0,1.067,1.067,2.133,2.133l0,0l0,0
		c1.067,1.067,1.067,1.067,1.067,2.133v1.067c0,1.067,0,1.067-1.067,2.133c0,1.067,0,0-1.067,1.067l-1.067,1.067
		C427.733,29.867,426.667,30.933,425.6,32z"/>
	<path style="fill:#F5B54C;" d="M428.8,19.2c2.133,0,2.133,1.067,3.2,1.067l0,0c1.067,1.067,2.133,3.2,1.067,4.267
		c-1.067,1.067-2.133,2.133-6.4,2.133c-3.2-2.133-3.2-3.2-4.267-4.267c0-1.067,0-2.133,2.133-2.133l0,0
		C425.6,20.267,426.667,19.2,428.8,19.2z"/>
</g>
<path style="fill:#F3F3F3;" d="M403.2,13.867l1.067-9.6C404.267,4.267,409.6,12.8,403.2,13.867z"/>
<g>
</g>
<g>
</g>
<g>
</g>
<g>
</g>
<g>
</g>
<g>
</g>
<g>
</g>
<g>
</g>
<g>
</g>
<g>
</g>
<g>
</g>
<g>
</g>
<g>
</g>
<g>
</g>
<g>
</g>
</svg>
