<?xml version="1.0" encoding="iso-8859-1"?>
<!-- Generator: Adobe Illustrator 19.0.0, SVG Export Plug-In . SVG Version: 6.00 Build 0)  -->
<svg version="1.1" id="Capa_1" xmlns="http://www.w3.org/2000/svg" xmlns:xlink="http://www.w3.org/1999/xlink" x="0px" y="0px"
	 viewBox="0 0 512.474 512.474" style="enable-background:new 0 0 512.474 512.474;" xml:space="preserve">
<g>
	<path style="fill:#344A5E;" d="M260.713,478.341l-26.667-120.533c0-2.133,1.067-4.267,3.2-4.267l0,0c2.133,0,4.267,1.067,4.267,3.2
		l26.667,120.533c0,2.133-1.067,4.267-3.2,4.267l0,0C262.846,481.541,261.78,479.407,260.713,478.341z"/>
	<path style="fill:#344A5E;" d="M307.646,495.407l-54.4-139.733c-1.067-2.133,0-4.267,2.133-4.267l0,0
		c2.133-1.067,4.267,0,4.267,2.133l54.4,139.733c1.067,2.133,0,4.267-2.133,4.267l0,0
		C310.846,498.607,308.713,497.541,307.646,495.407z"/>
	<path style="fill:#344A5E;" d="M154.046,512.474L154.046,512.474c-2.133,0-3.2-2.133-2.133-4.267l40.533-157.867
		c0-2.133,2.133-3.2,4.267-2.133l0,0c2.133,0,3.2,2.133,2.133,4.267l-40.533,157.867
		C158.313,511.407,156.18,512.474,154.046,512.474z"/>
	<path style="fill:#344A5E;" d="M123.113,463.407L123.113,463.407c-2.133-1.067-3.2-3.2-2.133-4.267l45.867-113.067
		c1.067-2.133,3.2-3.2,4.267-2.133l0,0c2.133,1.067,3.2,3.2,2.133,4.267L127.38,461.274
		C126.313,462.341,124.18,463.407,123.113,463.407z"/>
</g>
<path style="fill:#FFD15C;" d="M285.246,432.474c0,0-2.133,16-3.2,25.6c-1.067,8.533-1.067,8.533-1.067,8.533l-20.267,3.2l-9.6-28.8
	c0,0,2.133-25.6,10.667-26.667c9.6-1.067,9.6-1.067,9.6-1.067L285.246,432.474z"/>
<path style="fill:#F26F5A;" d="M131.646,242.607c0,0-7.467,41.6-7.467,52.267c1.067,11.733,3.2,22.4,7.467,26.667
	c3.2,4.267,12.8,9.6,19.2,16s52.267,19.2,71.467,20.267c20.267,1.067,77.867-8.533,77.867-8.533l5.333-27.733
	c0,0-76.8,14.933-103.467,9.6C175.38,325.807,131.646,242.607,131.646,242.607z"/>
<path style="fill:#E8EAE8;" d="M255.38,414.341v-2.133c0,0-9.6-1.067-13.867,4.267c-4.267,5.333-2.133,11.733,0,17.067
	c2.133,5.333,8.533,19.2,8.533,25.6c0,5.333,0,24.533,3.2,32c3.2,7.467,8.533,14.933,14.933,17.067c6.4,2.133,14.933,0,14.933-9.6
	c0-9.6-3.2-9.6-3.2-9.6l-19.2-23.467c0,0-2.133-1.067-6.4-19.2C250.046,428.207,254.313,414.341,255.38,414.341z"/>
<path style="fill:#67C5B8;" d="M258.58,417.541c0,0-4.267,12.8-4.267,20.267s1.067,23.467,13.867,28.8c0,0,12.8-4.267,13.867-8.533
	c0,0,0,14.933,1.067,20.267c1.067,5.333,2.133,21.333,0,24.533c-2.133,3.2-9.6,7.467-17.067,2.133c-6.4-4.267-12.8-17.067-12.8-25.6
	c0-8.533-1.067-23.467-3.2-28.8c-2.133-4.267-9.6-18.133-6.4-27.733c2.133-9.6,10.667-10.667,12.8-9.6
	c3.2,0,5.333,2.133,5.333,2.133S258.58,415.407,258.58,417.541z"/>
<path style="fill:#E8EAE8;" d="M352.446,306.607c0,0,16,4.267,19.2,13.867c3.2,8.533-2.133,18.133-12.8,18.133
	c-10.667-1.067-11.733-2.133-11.733-2.133L352.446,306.607z"/>
<path style="fill:#67C5B8;" d="M349.246,306.607c0,0,17.067,6.4,19.2,16c2.133,10.667-7.467,18.133-26.667,13.867
	c-21.333-4.267-21.333-4.267-21.333-4.267L349.246,306.607z"/>
<path style="fill:#425A6B;" d="M172.18,258.607l-29.867,37.333l5.333,23.467l14.933,11.733c0,0,13.867,5.333,22.4,1.067
	c0,0,18.133,8.533,37.333,5.333c19.2-3.2,24.533-3.2,32-3.2s28.8-3.2,28.8-3.2l13.867-4.267c0,0-14.933,23.467-14.933,39.467
	s-23.467,52.267-23.467,52.267s8.533,23.467,29.867,18.133c0,0,11.733-25.6,22.4-39.467c10.667-13.867,48-72.533,50.133-76.8
	c2.133-4.267,8.533-24.533-6.4-39.467c-16-14.933-44.8-23.467-44.8-23.467l-58.667-2.133L172.18,258.607z"/>
<path style="fill:#344A5E;" d="M320.446,311.941c-5.333,1.067-6.4,1.067-8.533,1.067c0,0,6.4-3.2,6.4-5.333
	c1.067-2.133,0-3.2-2.133,0c-3.2,3.2-5.333,6.4-5.333,6.4s2.133-4.267,2.133-6.4c0-2.133-2.133,3.2-3.2,5.333c0,1.067,0,0,0,0
	s-1.067-10.667-2.133-6.4c-1.067,4.267-1.067,5.333-1.067,6.4c0,1.067-2.133,2.133-4.267-2.133c-2.133-3.2-1.067,1.067,0,2.133
	c2.133,1.067,2.133,1.067,2.133,1.067s-3.2,4.267-5.333,4.267c-2.133,0-12.8-4.267-19.2-10.667c-5.333-6.4-11.733-11.733-21.333-16
	c-10.667-4.267-20.267-6.4-22.4-8.533c-2.133-1.067-6.4-9.6-6.4-17.067c0-8.533-6.4-5.333-6.4-5.333l-17.067,7.467
	c0,0,5.333,5.333,4.267,8.533c0,0,18.133,2.133,22.4,7.467c5.333,5.333,14.933,11.733,24.533,13.867
	c8.533,3.2,11.733,4.267,11.733,4.267s12.8,9.6,13.867,18.133c0,5.333,0,8.533,0,10.667l0,0l13.867-4.267
	c0,0-1.067,1.067-1.067,2.133c2.133-3.2,3.2-6.4,4.267-8.533s6.4-7.467,11.733-7.467S325.78,310.874,320.446,311.941z"/>
<path style="fill:#48B9A5;" d="M264.98,119.941l7.467,1.067c0,0,2.133,9.6,2.133,14.933c0,5.333-2.133,26.667-1.067,29.867
	c1.067,4.267,1.067,3.2,0,6.4c-1.067,3.2-2.133,6.4-2.133,11.733c0,4.267-1.067,14.933,0,16c1.067,1.067,2.133,2.133,2.133,4.267
	c0,2.133,3.2,3.2,4.267,6.4c1.067,3.2,5.333,17.067,5.333,17.067s-7.467,2.133-11.733,5.333c-4.267,4.267-4.267,4.267-4.267,4.267
	l-2.133-28.8l-2.133-58.667L264.98,119.941z"/>
<g>
	<path style="fill:#425A6B;" d="M213.78,4.741c-10.667,18.133-12.8,40.533-8.533,59.733c-5.333-2.133-9.6-6.4-11.733-11.733
		c-2.133-5.333-2.133-10.667-2.133-17.067c1.067-7.467,3.2-13.867,6.4-20.267c3.2-6.4,8.533-10.667,14.933-13.867"/>
	<path style="fill:#425A6B;" d="M215.913,9.007c-1.067-2.133-4.267-2.133-6.4-1.067c-2.133,1.067-3.2,3.2-4.267,4.267
		c-3.2,4.267-5.333,9.6-7.467,14.933c-2.133,5.333-3.2,10.667-2.133,17.067c1.067,5.333,3.2,9.6,5.333,14.933
		c4.267,12.8,1.067,26.667-7.467,36.267c-5.333,5.333-13.867,6.4-20.267,8.533c-7.467,2.133-13.867,6.4-19.2,11.733
		c1.067-3.2,3.2-6.4,5.333-9.6c2.133-2.133,5.333-5.333,7.467-7.467c5.333-6.4,8.533-14.933,10.667-23.467
		c2.133-8.533,1.067-17.067,2.133-26.667c0-3.2,1.067-5.333,2.133-7.467c4.267-7.467,7.467-14.933,11.733-22.4
		c2.133-4.267,4.267-7.467,7.467-10.667c3.2-3.2,7.467-6.4,12.8-7.467c2.133,0,4.267-1.067,6.4,0c2.133,1.067,4.267,3.2,4.267,5.333
		"/>
</g>
<path style="fill:#FFD15C;" d="M202.046,48.474c0,0-2.133,11.733-3.2,16c-1.067,4.267-3.2,8.533-5.333,10.667
	c-2.133,2.133-8.533,10.667-8.533,10.667l-3.2,33.067l11.733,21.333l53.333-2.133l-18.133-40.533c0,0,5.333,2.133,7.467-2.133
	c2.133-3.2,3.2-8.533,6.4-10.667c4.267-2.133,13.867-7.467,13.867-12.8c0-5.333,1.067-6.4,1.067-6.4s3.2-3.2,5.333-6.4
	c1.067-3.2,5.333-10.667,4.267-19.2c0-7.467,0-7.467,0-7.467s-19.2-10.667-29.867-10.667
	C225.513,21.807,209.513,25.007,202.046,48.474z"/>
<path style="fill:#F26F5A;" d="M188.18,125.274c23.467,9.6,40.533,7.467,51.2-11.733c0,0,20.267,35.2,20.267,49.067
	s12.8,93.867,12.8,93.867s-38.4,11.733-51.2,12.8c-12.8,1.067-37.333-7.467-49.067-4.267c-11.733,2.133-11.733,2.133-11.733,2.133
	l32-67.2L188.18,125.274z"/>
<path style="fill:#48B9A5;" d="M204.18,206.341c1.067,1.067,5.333,28.8,5.333,28.8s-2.133,8.533-8.533,11.733
	c-6.4,3.2-34.133,23.467-41.6,29.867c-7.467,6.4-13.867,22.4-12.8,29.867c1.067,6.4,16,25.6,16,25.6s-18.133-7.467-21.333-17.067
	c-2.133-8.533-3.2-24.533-6.4-41.6c-3.2-17.067-9.6-58.667-6.4-71.467c3.2-13.867,14.933-101.333,14.933-101.333
	c6.4-4.267,21.333-7.467,21.333-7.467L204.18,206.341z"/>
<path style="fill:#425A6B;" d="M202.046,49.541c0,0,2.133-11.733,7.467-12.8c5.333-1.067,3.2,10.667,3.2,10.667h3.2
	c0,0,2.133-10.667,8.533-14.933c6.4-3.2,13.867-4.267,17.067-3.2c4.267,1.067,21.333-3.2,24.533,9.6c0,0,5.333-16-8.533-27.733
	c-11.733-10.667-25.6-10.667-32-10.667c-6.4,1.067-21.333,11.733-24.533,21.333C197.78,31.407,200.98,46.341,202.046,49.541z"/>
<ellipse style="fill:#FFD15C;" cx="206.313" cy="44.207" rx="5.333" ry="10.667"/>
<path style="fill:#F5B54C;" d="M228.713,97.541c-7.467-4.267-22.4-22.4-24.533-29.867c0,0,1.067,27.733,33.067,49.067
	L228.713,97.541z"/>
<g>
	<path style="fill:#67C5B8;" d="M204.18,223.407c-3.2-1.067-21.333-11.733-25.6-13.867c-4.267-2.133-11.733-8.533-13.867-11.733
		c-1.067-2.133-2.133-9.6-2.133-12.8c0-3.2,0-25.6,0-25.6l-4.267-40.533c0-1.067,0-1.067-1.067-2.133v-1.067l0,0
		c-1.067-2.133-2.133-4.267-3.2-5.333c-1.067-1.067-1.067-2.133-2.133-2.133l0,0l-1.067-1.067c-1.067,0-2.133-1.067-2.133-2.133l0,0
		c-1.067-1.067-1.067,0,0,0l0,0l-1.067-1.067c-1.067-1.067-2.133-1.067-3.2-1.067l0,0h-1.067c-1.067,0-1.067,0-2.133,0
		c-1.067,0-2.133,0-2.133,1.067c-3.2,5.333-6.4,11.733-7.467,17.067c-1.067,5.333-5.333,33.067-6.4,38.4
		c-1.067,5.333,10.667,56.533,11.733,59.733c1.067,3.2,7.467,6.4,13.867,9.6c6.4,3.2,30.933,14.933,37.333,16
		c6.4,1.067,41.6,7.467,44.8,7.467c0,0,2.133-18.133,5.333-19.2C238.313,233.007,207.38,225.541,204.18,223.407z"/>
	<path style="fill:#67C5B8;" d="M194.58,74.074c0,0-6.4,9.6-6.4,14.933s11.733,51.2,14.933,61.867s6.4,84.267,6.4,84.267
		l-59.733-92.8l14.933-49.067l17.067-6.4C181.78,86.874,189.246,74.074,194.58,74.074z"/>
	<path style="fill:#67C5B8;" d="M228.713,97.541c0,0,20.267,59.733,23.467,68.267c3.2,9.6,11.733,84.267,11.733,84.267l10.667-3.2
		c0,0-7.467-30.933-6.4-41.6c1.067-10.667,9.6-74.667,5.333-85.333c0,0-1.067-4.267-5.333-6.4c-4.267,0-32-17.067-32-17.067
		S234.046,99.674,228.713,97.541z"/>
</g>
<path style="fill:#F26F5A;" d="M208.446,7.941c0,1.067,1.067,2.133,3.2,1.067c2.133-2.133,5.333-5.333,8.533-6.4
	c-2.133-2.133-4.267-2.133-6.4-2.133C212.713,3.674,210.58,5.807,208.446,7.941z"/>
<polygon style="fill:#CED6E0;" points="215.913,251.141 214.846,250.074 291.646,244.741 307.646,261.807 268.18,266.074 "/>
<path style="fill:#425A6B;" d="M267.113,265.007h2.133l97.067-7.467l0,0c0,2.133-1.067,3.2-3.2,3.2l-93.867,7.467L267.113,265.007z"
	/>
<polygon style="fill:#F3F3F3;" points="269.246,265.007 269.246,268.207 214.846,251.141 214.846,250.074 "/>
<path style="fill:#FFD15C;" d="M234.046,247.941c0,0,6.4,2.133,10.667-1.067c3.2-2.133,10.667-6.4,10.667-6.4h4.267
	c0,0,4.267,1.067,5.333,1.067c0,0,7.467,4.267,10.667,0c0,0,5.333,2.133,6.4,2.133c2.133,0,2.133-3.2,2.133-3.2l-8.533-7.467
	c0,0-2.133-3.2-6.4-4.267c-5.333-1.067-10.667-2.133-10.667-2.133s-3.2-1.067-7.467,0c-3.2,1.067-9.6,5.333-12.8,6.4
	c-3.2,0-3.2,0-3.2,0L234.046,247.941z"/>
<path style="fill:#67C5B8;" d="M204.18,223.407c-1.067,0-2.133-1.067-3.2-1.067v25.6c12.8,2.133,30.933,5.333,33.067,5.333
	c0,0,2.133-18.133,5.333-19.2C238.313,233.007,207.38,225.541,204.18,223.407z"/>
<path style="fill:#F5B54C;" d="M274.58,242.607L274.58,242.607c-1.067-1.067-1.067-2.133-2.133-2.133l-1.067-1.067l-1.067-1.067
	c-1.067-1.067-2.133-1.067-3.2-1.067c-1.067,0-1.067-1.067-2.133-1.067c-1.067,0-1.067,0-2.133-1.067c-1.067,0-1.067,0-2.133,0
	h-1.067c-1.067,0-2.133,0-2.133,0c-1.067,0-1.067,0-1.067,0s0,0,1.067,0h1.067h1.067c1.067,0,2.133,0,3.2,1.067
	c1.067,0,1.067,0,2.133,1.067c1.067,0,1.067,0,2.133,1.067c1.067,0,1.067,0,2.133,1.067c1.067,0,1.067,0,2.133,1.067
	c1.067,0,1.067,1.067,1.067,1.067l1.067,1.067C273.513,240.474,274.58,241.541,274.58,242.607L274.58,242.607z"/>
<g>
	<path style="fill:#344A5E;" d="M216.98,276.741L216.98,276.741c-1.067,0-2.133,0-2.133,0c-1.067,0-1.067,0-2.133,0s-2.133,0-3.2,0
		h-1.067h-1.067h-1.067h-1.067h-1.067c0,0,0,0-1.067,0l0,0l0,0l0,0l0,0c0,0,0,0,1.067,0c0,0,0,0,1.067-1.067
		c1.067,0,1.067-1.067,2.133-1.067h1.067h1.067h1.067h1.067c1.067,0,2.133,0,2.133,0
		C215.913,276.741,215.913,276.741,216.98,276.741L216.98,276.741z"/>
</g>
<path style="fill:#ACB2BA;" d="M270.313,268.207l92.8-7.467c2.133,0,3.2-1.067,3.2-3.2l25.6-74.667c0-1.067-1.067-3.2-2.133-3.2
	l-92.8,2.133c-2.133,0-3.2,1.067-4.267,3.2l-24.533,81.067C268.18,267.141,269.246,268.207,270.313,268.207z"/>
<g>
</g>
<g>
</g>
<g>
</g>
<g>
</g>
<g>
</g>
<g>
</g>
<g>
</g>
<g>
</g>
<g>
</g>
<g>
</g>
<g>
</g>
<g>
</g>
<g>
</g>
<g>
</g>
<g>
</g>
</svg>
